# xmcd
#
# Track frame offsets: 
#        150
#        16796
#        31424
#        46708
#        63518
#        78235
#        97518
#        124760
#        137688
#        159410
#        182334
#        208597
#
# Disc length: 3028 seconds
#
# Revision: 0
# Processed by: cddbd v1.5.2PL0 Copyright (c) Steve Scherf et al.
# Submitted via: ExactAudioCopyFreeDBPlugin 1.0
#
DISCID=850bd20c
DTITLE=Bug Tussle - Farm Stand
DYEAR=2016
DGENRE=Bluegrass
TTITLE0=These Walls
TTITLE1=Farm Stand
TTITLE2=Can't Break Me In
TTITLE3=You And I
TTITLE4=Machine Gun Mike
TTITLE5=A Man Like Me
TTITLE6=Travelin' Girl
TTITLE7=Hippies In The Henhouse
TTITLE8=Life's Knockin'
TTITLE9=Untangled
TTITLE10=Doin Hard Time
TTITLE11=Whiskey Train
EXTD=
EXTT0=
EXTT1=
EXTT2=
EXTT3=
EXTT4=
EXTT5=
EXTT6=
EXTT7=
EXTT8=
EXTT9=
EXTT10=
EXTT11=
PLAYORDER=
